<svg xmlns="http://www.w3.org/2000/svg" style="display:none">
  <symbol id="i-home" viewBox="0 0 24 24"><path d="M3 10.5 12 3l9 7.5"/><path d="M5.5 9.5V21h13V9.5"/><path d="M9.5 21v-6h5v6"/></symbol>
  <symbol id="i-workbench" viewBox="0 0 24 24"><path d="M4 4h7v7H4z"/><path d="M13 4h7v7h-7z"/><path d="M4 13h7v7H4z"/><path d="M13 13h7v7h-7z"/></symbol>
  <symbol id="i-search" viewBox="0 0 24 24"><circle cx="10.5" cy="10.5" r="6.5"/><path d="m16 16 4.5 4.5"/></symbol>
  <symbol id="i-bell" viewBox="0 0 24 24"><path d="M18 9a6 6 0 0 0-12 0c0 7-3 7-3 9h18c0-2-3-2-3-9"/><path d="M10 21h4"/></symbol>
  <symbol id="i-plus" viewBox="0 0 24 24"><path d="M12 5v14"/><path d="M5 12h14"/></symbol>
  <symbol id="i-back" viewBox="0 0 24 24"><path d="M15 18 9 12l6-6"/></symbol>
  <symbol id="i-trash" viewBox="0 0 24 24"><path d="M4 7h16"/><path d="M10 11v6"/><path d="M14 11v6"/><path d="M6 7l1 14h10l1-14"/><path d="M9 7V4h6v3"/></symbol>
  <symbol id="i-box" viewBox="0 0 24 24"><path d="m4 7 8-4 8 4-8 4z"/><path d="M4 7v10l8 4 8-4V7"/><path d="M12 11v10"/></symbol>
  <symbol id="i-todo" viewBox="0 0 24 24"><path d="M4 6h16"/><path d="M4 12h16"/><path d="M4 18h9"/><path d="m15 17 2 2 4-5"/></symbol>
  <symbol id="i-chat" viewBox="0 0 24 24"><path d="M4 5h16v11H8l-4 4z"/><path d="M8 9h8"/><path d="M8 13h5"/></symbol>
  <symbol id="i-user" viewBox="0 0 24 24"><circle cx="12" cy="8" r="4"/><path d="M4.5 21a7.5 7.5 0 0 1 15 0"/></symbol>
  <symbol id="i-category" viewBox="0 0 24 24"><path d="M4 5h7v7H4z"/><path d="M13 5h7v7h-7z"/><path d="M4 14h7v5H4z"/><path d="M13 14h7v5h-7z"/></symbol>
  <symbol id="i-location" viewBox="0 0 24 24"><path d="M12 22s7-6.2 7-12A7 7 0 0 0 5 10c0 5.8 7 12 7 12Z"/><circle cx="12" cy="10" r="2.5"/></symbol>
  <symbol id="i-template" viewBox="0 0 24 24"><path d="M6 3h12v18H6z"/><path d="M9 7h6"/><path d="M9 11h6"/><path d="M9 15h4"/></symbol>
  <symbol id="i-borrow" viewBox="0 0 24 24"><path d="M7 7h10v10H7z"/><path d="M17 8h3v9a3 3 0 0 1-3 3H8"/><path d="M7 16H4V7a3 3 0 0 1 3-3h9"/></symbol>
  <symbol id="i-calendar" viewBox="0 0 24 24"><path d="M5 4h14v17H5z"/><path d="M8 2v4"/><path d="M16 2v4"/><path d="M5 9h14"/><path d="M8 13h2"/><path d="M12 13h2"/><path d="M16 13h2"/><path d="M8 17h2"/></symbol>
  <symbol id="i-share" viewBox="0 0 24 24"><circle cx="6" cy="12" r="3"/><circle cx="18" cy="6" r="3"/><circle cx="18" cy="18" r="3"/><path d="m8.7 10.7 6.6-3.4"/><path d="m8.7 13.3 6.6 3.4"/></symbol>
  <symbol id="i-stats" viewBox="0 0 24 24"><path d="M5 19V9"/><path d="M12 19V5"/><path d="M19 19v-7"/><path d="M3 19h18"/></symbol>
  <symbol id="i-data" viewBox="0 0 24 24"><ellipse cx="12" cy="6" rx="7" ry="3"/><path d="M5 6v6c0 1.7 3.1 3 7 3s7-1.3 7-3V6"/><path d="M5 12v6c0 1.7 3.1 3 7 3s7-1.3 7-3v-6"/></symbol>
  <symbol id="i-asset" viewBox="0 0 24 24"><path d="M4 19h16"/><path d="M6 16V8"/><path d="M12 16V5"/><path d="M18 16v-6"/><path d="M5 8l7-4 7 6"/></symbol>
  <symbol id="i-widget" viewBox="0 0 24 24"><path d="M5 4h14v16H5z"/><path d="M8 8h3v3H8z"/><path d="M13 8h3"/><path d="M13 12h3"/><path d="M8 15h8"/></symbol>
  <symbol id="i-lock" viewBox="0 0 24 24"><path d="M7 10V8a5 5 0 0 1 10 0v2"/><path d="M6 10h12v11H6z"/><path d="M12 15v2"/></symbol>
  <symbol id="i-theme" viewBox="0 0 24 24"><path d="M12 3a9 9 0 1 0 9 9 6.5 6.5 0 0 1-9-9Z"/></symbol>
  <symbol id="i-language" viewBox="0 0 24 24"><path d="M4 5h9"/><path d="M8.5 3v2"/><path d="M6 18l5-13"/><path d="M5 11c1.5 2.4 3.6 4.1 7 5"/><path d="M13 21l4-9 4 9"/><path d="M15 17h4"/></symbol>
  <symbol id="i-sync" viewBox="0 0 24 24"><path d="M20 7a8 8 0 0 0-13.5-2L4 7"/><path d="M4 7h5"/><path d="M4 17a8 8 0 0 0 13.5 2L20 17"/><path d="M15 17h5"/></symbol>
  <symbol id="i-feedback" viewBox="0 0 24 24"><path d="M4 5h16v11H8l-4 4z"/><path d="M8 9h8"/><path d="M8 13h6"/></symbol>
  <symbol id="i-check" viewBox="0 0 24 24"><path d="m5 12 4 4L19 6"/></symbol>
  <symbol id="i-alert" viewBox="0 0 24 24"><path d="M12 4 3 20h18z"/><path d="M12 9v5"/><path d="M12 17h.01"/></symbol>
</svg>
